<?xml version="1.0" encoding="UTF-8" standalone="no"?>
<!DOCTYPE svg PUBLIC "-//W3C//DTD SVG 1.1//EN"
 "http://www.w3.org/Graphics/SVG/1.1/DTD/svg11.dtd">
<!-- Generated by graphviz version 2.43.0 (0)
 -->
<!-- Title: key Pages: 1 -->
<svg width="258pt" height="527pt"
 viewBox="0.00 0.00 257.91 527.40" xmlns="http://www.w3.org/2000/svg" xmlns:xlink="http://www.w3.org/1999/xlink">
<g id="graph0" class="graph" transform="scale(1 1) rotate(0) translate(4 523.4)">
<title>key</title>
<polygon fill="transparent" stroke="transparent" points="-4,4 -4,-523.4 253.91,-523.4 253.91,4 -4,4"/>
<text text-anchor="middle" x="124.96" y="-7.8" font-family="Times,serif" font-size="14.00">Key</text>
<!-- color1 -->
<g id="node1" class="node">
<title>color1</title>
<ellipse fill="black" stroke="black" cx="122.91" cy="-225.6" rx="1.8" ry="1.8"/>
</g>
<!-- color2 -->
<g id="node2" class="node">
<title>color2</title>
<ellipse fill="black" stroke="black" cx="122.91" cy="-140" rx="1.8" ry="1.8"/>
</g>
<!-- color1&#45;&gt;color2 -->
<g id="edge1" class="edge">
<title>color1&#45;&gt;color2</title>
<path fill="none" stroke="limegreen" d="M121.23,-224.6C108.32,-224.57 25.08,-223.7 9.91,-205.8 -3.3,-190.2 -3.3,-175.4 9.91,-159.8 22.77,-144.62 84.54,-141.69 110.92,-141.13"/>
<polygon fill="limegreen" stroke="limegreen" points="111.27,-144.62 121.23,-141 111.19,-137.62 111.27,-144.62"/>
<text text-anchor="middle" x="23.41" y="-185.8" font-family="Ubuntu Sans" font-size="10.00">Install</text>
<text text-anchor="middle" x="23.41" y="-174.8" font-family="Ubuntu Sans" font-size="10.00">route</text>
</g>
<!-- color1&#45;&gt;color2 -->
<g id="edge2" class="edge">
<title>color1&#45;&gt;color2</title>
<path fill="none" stroke="darkgreen" d="M120.92,-224.75C111.97,-225.32 75.19,-226.3 59.91,-205.8 47.7,-189.41 47.7,-176.19 59.91,-159.8 71.61,-144.1 95.91,-141 110.68,-140.66"/>
<polygon fill="darkgreen" stroke="darkgreen" points="110.86,-144.17 120.92,-140.85 110.99,-137.17 110.86,-144.17"/>
<text text-anchor="middle" x="80.41" y="-179.8" font-family="Ubuntu Sans" font-size="10.00">Re&#45;install</text>
<text text-anchor="middle" x="80.41" y="-168.8" font-family="Ubuntu Sans" font-size="10.00">route</text>
</g>
<!-- color1&#45;&gt;color2 -->
<g id="edge3" class="edge">
<title>color1&#45;&gt;color2</title>
<path fill="none" stroke="blue" d="M122.91,-223.66C122.91,-216.7 122.91,-172.79 122.91,-151.95"/>
<polygon fill="blue" stroke="blue" points="126.41,-151.83 122.91,-141.83 119.41,-151.83 126.41,-151.83"/>
<text text-anchor="middle" x="142.91" y="-173.8" font-family="Ubuntu Sans" font-size="10.00">Upgrade</text>
<text text-anchor="middle" x="142.91" y="-162.8" font-family="Ubuntu Sans" font-size="10.00">route</text>
</g>
<!-- color1&#45;&gt;color2 -->
<g id="edge4" class="edge">
<title>color1&#45;&gt;color2</title>
<path fill="none" stroke="red" d="M124.57,-224.45C131.02,-223.76 154.61,-220.3 163.91,-205.8 174.95,-188.59 174.95,-177.01 163.91,-159.8 157.52,-149.83 144.37,-145.08 134.68,-142.86"/>
<polygon fill="red" stroke="red" points="135.01,-139.37 124.57,-141.15 133.84,-146.27 135.01,-139.37"/>
<text text-anchor="middle" x="190.41" y="-179.8" font-family="Ubuntu Sans" font-size="10.00">Remove</text>
<text text-anchor="middle" x="190.41" y="-168.8" font-family="Ubuntu Sans" font-size="10.00">route</text>
</g>
<!-- color1&#45;&gt;color2 -->
<g id="edge5" class="edge">
<title>color1&#45;&gt;color2</title>
<path fill="none" stroke="firebrick" d="M124.53,-224.53C135.69,-224 201.13,-220.29 212.91,-205.8 225.81,-189.93 225.81,-175.67 212.91,-159.8 203.16,-147.8 156.6,-143.19 134.55,-141.66"/>
<polygon fill="firebrick" stroke="firebrick" points="134.72,-138.17 124.53,-141.07 134.31,-145.16 134.72,-138.17"/>
<text text-anchor="middle" x="235.91" y="-185.8" font-family="Ubuntu Sans" font-size="10.00">Purge</text>
<text text-anchor="middle" x="235.91" y="-174.8" font-family="Ubuntu Sans" font-size="10.00">route</text>
</g>
<!-- style1 -->
<g id="node3" class="node">
<title>style1</title>
<ellipse fill="black" stroke="black" cx="122.91" cy="-99.4" rx="1.8" ry="1.8"/>
</g>
<!-- color2&#45;&gt;style1 -->
<g id="edge8" class="edge">
<title>color2&#45;&gt;style1</title>
<path fill="none" stroke="transparent" d="M122.91,-138.05C122.91,-134.47 122.91,-121.57 122.91,-111.86"/>
<polygon fill="transparent" stroke="transparent" points="126.41,-111.77 122.91,-101.77 119.41,-111.77 126.41,-111.77"/>
</g>
<!-- style2 -->
<g id="node4" class="node">
<title>style2</title>
<ellipse fill="black" stroke="black" cx="122.91" cy="-24.8" rx="1.8" ry="1.8"/>
</g>
<!-- style1&#45;&gt;style2 -->
<g id="edge6" class="edge">
<title>style1&#45;&gt;style2</title>
<path fill="none" stroke="black" d="M121.49,-98.16C115.95,-97.15 95.7,-92.62 87.91,-79.6 79.93,-66.25 79.93,-57.95 87.91,-44.6 93.02,-36.05 103.5,-31.17 111.67,-28.53"/>
<polygon fill="black" stroke="black" points="112.66,-31.89 121.49,-26.04 110.94,-25.11 112.66,-31.89"/>
<text text-anchor="middle" x="112.91" y="-59.6" font-family="Ubuntu Sans" font-size="10.00">On success</text>
</g>
<!-- style1&#45;&gt;style2 -->
<g id="edge7" class="edge">
<title>style1&#45;&gt;style2</title>
<path fill="none" stroke="black" stroke-dasharray="1,5" d="M123.99,-97.53C126.93,-95.08 135.04,-87.8 137.91,-79.6 143.05,-64.92 143.05,-59.28 137.91,-44.6 136.52,-40.63 133.9,-36.87 131.24,-33.78"/>
<polygon fill="black" stroke="black" points="133.58,-31.17 123.99,-26.67 128.68,-36.17 133.58,-31.17"/>
<text text-anchor="middle" x="163.41" y="-47.6" font-family="Ubuntu Sans" font-size="10.00">On failure</text>
</g>
<!-- package_state -->
<g id="node5" class="node">
<title>package_state</title>
<path fill="#ed764d" stroke="black" d="M137.91,-300.4C137.91,-300.4 107.91,-300.4 107.91,-300.4 101.91,-300.4 95.91,-294.4 95.91,-288.4 95.91,-288.4 95.91,-276.4 95.91,-276.4 95.91,-270.4 101.91,-264.4 107.91,-264.4 107.91,-264.4 137.91,-264.4 137.91,-264.4 143.91,-264.4 149.91,-270.4 149.91,-276.4 149.91,-276.4 149.91,-288.4 149.91,-288.4 149.91,-294.4 143.91,-300.4 137.91,-300.4"/>
<text text-anchor="middle" x="122.91" y="-285.4" font-family="Ubuntu Sans" font-size="10.00" fill="white">Package</text>
<text text-anchor="middle" x="122.91" y="-274.4" font-family="Ubuntu Sans" font-size="10.00" fill="white">state</text>
</g>
<!-- package_state&#45;&gt;color1 -->
<g id="edge9" class="edge">
<title>package_state&#45;&gt;color1</title>
<path fill="none" stroke="transparent" d="M122.91,-264.36C122.91,-255.67 122.91,-245.36 122.91,-237.7"/>
<polygon fill="transparent" stroke="transparent" points="126.41,-237.56 122.91,-227.56 119.41,-237.56 126.41,-237.56"/>
</g>
<!-- user_action -->
<g id="node6" class="node">
<title>user_action</title>
<polygon fill="#925375" stroke="black" points="149.91,-373.4 95.91,-373.4 95.91,-337.4 149.91,-337.4 149.91,-373.4"/>
<text text-anchor="middle" x="122.91" y="-358.4" font-family="Ubuntu Sans" font-size="10.00" fill="white">User</text>
<text text-anchor="middle" x="122.91" y="-347.4" font-family="Ubuntu Sans" font-size="10.00" fill="white">action</text>
</g>
<!-- user_action&#45;&gt;package_state -->
<g id="edge12" class="edge">
<title>user_action&#45;&gt;package_state</title>
<path fill="none" stroke="transparent" d="M122.91,-337.21C122.91,-329.19 122.91,-319.45 122.91,-310.47"/>
<polygon fill="transparent" stroke="transparent" points="126.41,-310.43 122.91,-300.43 119.41,-310.43 126.41,-310.43"/>
</g>
<!-- dpkg_action -->
<g id="node7" class="node">
<title>dpkg_action</title>
<polygon fill="white" stroke="black" points="150.41,-446.4 95.41,-446.4 95.41,-410.4 150.41,-410.4 150.41,-446.4"/>
<text text-anchor="middle" x="122.91" y="-431.4" font-family="Ubuntu Sans" font-size="10.00">dh/dpkg</text>
<text text-anchor="middle" x="122.91" y="-420.4" font-family="Ubuntu Sans" font-size="10.00">activity</text>
</g>
<!-- dpkg_action&#45;&gt;user_action -->
<g id="edge11" class="edge">
<title>dpkg_action&#45;&gt;user_action</title>
<path fill="none" stroke="transparent" d="M122.91,-410.21C122.91,-402.19 122.91,-392.45 122.91,-383.47"/>
<polygon fill="transparent" stroke="transparent" points="126.41,-383.43 122.91,-373.43 119.41,-383.43 126.41,-383.43"/>
</g>
<!-- maintscript -->
<g id="node8" class="node">
<title>maintscript</title>
<polygon fill="#beb8b2" stroke="black" points="156.91,-519.4 88.91,-519.4 88.91,-483.4 156.91,-483.4 156.91,-519.4"/>
<text text-anchor="middle" x="122.91" y="-504.4" font-family="Ubuntu Sans" font-size="10.00">Run</text>
<text text-anchor="middle" x="122.91" y="-493.4" font-family="Ubuntu Sans" font-size="10.00">maintscript</text>
</g>
<!-- maintscript&#45;&gt;dpkg_action -->
<g id="edge10" class="edge">
<title>maintscript&#45;&gt;dpkg_action</title>
<path fill="none" stroke="transparent" d="M122.91,-483.21C122.91,-475.19 122.91,-465.45 122.91,-456.47"/>
<polygon fill="transparent" stroke="transparent" points="126.41,-456.43 122.91,-446.43 119.41,-456.43 126.41,-456.43"/>
</g>
</g>
</svg>
